<svg width="26" height="26" viewBox="0 0 26 26" fill="none" xmlns="http://www.w3.org/2000/svg">
<path d="M0.000559111 12.9731C0.0685143 5.70644 5.93183 -0.0776106 13.1508 0.000787626C20.3436 0.0774437 26.0605 5.93816 25.9995 13.1717C25.9403 20.2763 20.0386 26.0674 12.933 25.9994C5.75759 25.928 -0.0656536 20.062 0.000559111 12.9731ZM10.4535 20.2415C11.2201 20.2415 11.9607 20.245 12.6995 20.2415C13.4383 20.238 13.3477 20.3129 13.3494 19.6108C13.3546 18.0516 13.3372 16.4941 13.3581 14.9365C13.3738 13.8128 14.2851 12.9539 15.4124 12.9435C16.4684 12.9348 17.2507 13.717 17.3187 14.8547C17.3274 15.0114 17.3256 15.1682 17.3256 15.3268C17.3256 16.8285 17.3239 18.3286 17.3291 19.8303C17.3291 19.9958 17.2455 20.238 17.5522 20.2397C18.4338 20.2432 19.3173 20.2415 20.2111 20.2415C20.2285 20.1108 20.2495 20.0272 20.2495 19.9453C20.2495 17.8007 20.2634 15.6561 20.232 13.5114C20.2251 13.0811 20.1014 12.6316 19.9376 12.2292C18.9008 9.69256 15.0361 9.79884 13.7414 11.2431C13.6421 11.3546 13.5358 11.4591 13.3407 11.663C13.3407 11.1612 13.3407 10.7867 13.3407 10.4069C12.344 10.4069 11.4083 10.4069 10.4517 10.4069C10.4535 13.6856 10.4535 16.9366 10.4535 20.2415ZM8.68836 20.2171C8.68836 16.9122 8.68836 13.6595 8.68836 10.4121C7.70214 10.4121 6.75251 10.4121 5.81334 10.4121C5.81334 13.7013 5.81334 16.9522 5.81334 20.2171C6.7891 20.2171 7.72654 20.2171 8.68836 20.2171ZM7.22298 5.39111C6.24024 5.39111 5.47008 6.17684 5.4753 7.17337C5.48053 8.17686 6.24895 8.9591 7.2282 8.95736C8.20745 8.95562 9.00026 8.16815 9.00723 7.18904C9.0142 6.18206 8.22836 5.39111 7.22298 5.39111Z" fill="white"/>
</svg>
