<svg width="26" height="26" viewBox="0 0 26 26" fill="none" xmlns="http://www.w3.org/2000/svg">
<path d="M26 13.0035C25.9965 20.1647 20.1643 25.993 12.9956 26C5.80953 26.007 -0.00696378 20.1769 6.25772e-06 12.9704C0.0069763 5.7952 5.82522 -0.00522365 13.0061 3.53016e-06C20.1713 0.00523071 26.0035 5.84225 26 13.0035ZM13.027 7.22919C11.234 7.33373 9.42002 7.40866 7.61303 7.55328C5.95068 7.6857 5.2955 8.35304 5.13344 10.0013C4.9348 12.0121 4.93131 14.0263 5.1439 16.037C5.30421 17.5686 5.90886 18.1888 7.4353 18.384C9.89572 18.6976 12.3701 18.6959 14.841 18.6279C16.1252 18.5931 17.4112 18.5025 18.6867 18.3613C20.0389 18.2115 20.6505 17.6452 20.8003 16.2984C20.9537 14.9253 20.999 13.5349 21.0077 12.1514C21.0129 11.2559 20.9014 10.3533 20.776 9.46468C20.6313 8.44538 20.011 7.8338 18.9916 7.64388C18.7808 7.6038 18.5699 7.55677 18.3573 7.54283C16.5887 7.4348 14.8201 7.33373 13.027 7.22919Z" fill="white"/>
<path d="M15.5641 12.9772C14.1579 13.7944 12.8232 14.5715 11.4309 15.3817C11.4309 13.763 11.4309 12.221 11.4309 10.6023C12.8249 11.4038 14.1632 12.1722 15.5641 12.9772Z" fill="white"/>
</svg>
