<svg width="26" height="26" viewBox="0 0 26 26" fill="none" xmlns="http://www.w3.org/2000/svg">
<path d="M26 13.0061C25.9843 20.1982 20.1378 26.0226 12.9547 25.9999C5.75592 25.9773 -0.0156517 20.1581 3.18881e-05 12.9346C0.0139729 5.7983 5.85525 -0.0121767 13.007 1.91639e-05C20.1709 0.0139573 26.0139 5.86276 26 13.0061ZM14.1188 22.8063C14.1188 20.0762 14.1188 17.3827 14.1188 14.649C14.9151 14.649 15.6575 14.6577 16.3999 14.6403C16.5218 14.6368 16.7327 14.5358 16.7466 14.4504C16.9314 13.4277 17.0865 12.3998 17.2607 11.3056C16.1855 11.3056 15.1643 11.3056 14.1118 11.3056C14.1118 10.4745 14.1135 9.70447 14.1118 8.93439C14.1101 8.25142 14.4412 7.77926 15.0685 7.55799C15.3979 7.44126 15.7638 7.41512 16.1176 7.39247C16.5253 7.3646 16.9348 7.3855 17.3409 7.3855C17.3409 6.42377 17.3409 5.53347 17.3409 4.62052C16.7048 4.5909 16.1054 4.56129 15.5076 4.53689C15.065 4.51773 14.6206 4.47069 14.1798 4.49856C12.3152 4.61355 10.996 5.75648 10.6823 7.67821C10.5168 8.69918 10.5847 9.75674 10.5464 10.7986C10.5412 10.9624 10.5307 11.1262 10.522 11.3265C9.51301 11.3265 8.5598 11.3265 7.58219 11.3265C7.58219 12.4433 7.58219 13.52 7.58219 14.6525C8.572 14.6525 9.53741 14.6525 10.5568 14.6525C10.5568 17.4001 10.5568 20.0919 10.5568 22.8046C11.7523 22.8063 12.892 22.8063 14.1188 22.8063Z" fill="white"/>
</svg>
