<svg width="26" height="26" viewBox="0 0 26 26" fill="none" xmlns="http://www.w3.org/2000/svg">
<path d="M25.9993 13.0306C25.9244 20.267 20.0926 26.0536 12.9277 25.9996C5.72111 25.9439 -0.0759146 20.0683 0.000751761 12.8999C0.0791605 5.67923 5.92496 -0.0673588 13.1246 0.000596521C20.2529 0.065067 26.0708 5.95454 25.9993 13.0306ZM5.14088 21.2131C5.33081 21.194 5.45625 21.1887 5.57822 21.1678C6.77526 20.964 7.9723 20.7479 9.17108 20.5562C9.36972 20.5249 9.60321 20.5423 9.78965 20.6172C10.8246 21.0354 11.8945 21.234 13.0114 21.2323C17.58 21.2253 21.2286 17.5662 21.2286 12.9818C21.2286 8.4288 17.5364 4.74353 12.9783 4.7505C7.14814 4.75922 3.15278 10.7009 5.37262 16.1043C5.62527 16.7194 5.70368 17.2874 5.58345 17.9199C5.48413 18.4392 5.42837 18.9654 5.36042 19.4898C5.28375 20.0492 5.21581 20.612 5.14088 21.2131Z" fill="white"/>
<path d="M6.83982 19.5299C6.95133 18.6901 7.07504 17.9443 7.13602 17.1933C7.15867 16.9023 7.1064 16.5643 6.97223 16.3099C4.76285 12.1211 7.13254 7.11851 11.7534 6.24206C15.6233 5.50849 19.2946 8.21799 19.8191 12.196C20.3192 15.9823 17.4058 19.5369 13.5638 19.8384C12.3389 19.9342 11.1784 19.7146 10.0563 19.2233C9.81586 19.1187 9.5092 19.0891 9.24435 19.1257C8.46724 19.2285 7.69709 19.3818 6.83982 19.5299ZM11.5653 11.0111C11.2987 10.3926 11.0843 9.81756 10.8038 9.27914C10.6609 9.00558 10.3665 9.06831 10.1156 9.19551C9.2914 9.61369 8.80178 10.5476 9.0161 11.4555C9.14678 12.0043 9.36109 12.548 9.62245 13.0481C10.7533 15.2157 12.5253 16.5678 14.9124 17.1097C15.4334 17.2282 15.8742 17.0731 16.2332 16.6863C16.4266 16.4772 16.6095 16.2559 16.7838 16.0294C17.0016 15.7488 16.9964 15.4683 16.7089 15.2383C16.3848 14.9804 16.0659 14.7069 15.7052 14.5117C15.5449 14.4263 15.247 14.4472 15.0867 14.5448C14.8114 14.7121 14.6127 14.9961 14.3496 15.1913C14.2242 15.2853 13.9802 15.376 13.8722 15.3167C12.5846 14.6215 11.5321 13.6875 10.938 12.3093C10.8456 12.0967 10.8892 11.9608 11.0547 11.7848C11.2568 11.5722 11.3893 11.2882 11.5653 11.0111Z" fill="white"/>
</svg>
