<svg width="69" height="27" viewBox="0 0 69 27" fill="none" xmlns="http://www.w3.org/2000/svg">
<path fill-rule="evenodd" clip-rule="evenodd" d="M12.6077 3.45631C11.799 4.36183 10.5051 5.07605 9.2112 4.97402C9.04946 3.74965 9.68293 2.44875 10.4242 1.64525C11.2329 0.714219 12.6481 0.0510156 13.7937 0C13.9285 1.27539 13.4029 2.52527 12.6077 3.45631ZM13.7801 5.21636C12.6402 5.15428 11.6001 5.54075 10.76 5.85292C10.2193 6.0538 9.76152 6.22392 9.41321 6.22392C9.02235 6.22392 8.54563 6.04471 8.01038 5.8435C7.30903 5.57984 6.50719 5.27842 5.66633 5.29288C3.73898 5.31839 1.9464 6.35146 0.96251 7.99671C-1.05919 11.2872 0.436868 16.1592 2.39118 18.8375C3.34811 20.1639 4.49374 21.6179 6.00328 21.5668C6.66738 21.5431 7.1451 21.3513 7.6395 21.1528C8.20868 20.9243 8.79996 20.6868 9.72321 20.6868C10.6144 20.6868 11.1799 20.9181 11.7226 21.14C12.2387 21.3511 12.7343 21.5538 13.4701 21.5413C15.0335 21.5158 16.0174 20.2149 16.9744 18.8885C18.0071 17.4649 18.4609 16.0756 18.5297 15.8647L18.5378 15.8404C18.5362 15.8388 18.5234 15.8333 18.5009 15.8235C18.1557 15.674 15.5171 14.5309 15.4918 11.4658C15.4664 8.89302 17.5846 7.5895 17.9181 7.38431L17.9182 7.38425C17.9384 7.3718 17.9521 7.3634 17.9583 7.35901C16.6105 5.47144 14.5079 5.26738 13.7801 5.21636ZM24.603 21.401V1.51765H32.4876C36.558 1.51765 39.4019 4.17046 39.4019 8.04764C39.4019 11.9248 36.5041 14.6031 32.3798 14.6031H27.8647V21.401H24.603ZM27.8652 4.11946H31.6256C34.4559 4.11946 36.0733 5.54789 36.0733 8.06041C36.0733 10.5729 34.4559 12.0141 31.6121 12.0141H27.8652V4.11946ZM50.1716 19.0161C49.309 20.5721 47.4086 21.5541 45.36 21.5541C42.3274 21.5541 40.2114 19.8451 40.2114 17.2688C40.2114 14.7181 42.26 13.2514 46.0474 13.0345L50.1177 12.805V11.7081C50.1177 10.0884 48.999 9.20837 47.0043 9.20837C45.36 9.20837 44.1604 10.0119 43.9178 11.2362H40.9796C41.074 8.65996 43.6348 6.78514 47.0986 6.78514C50.832 6.78514 53.2581 8.63445 53.2581 11.5041V21.4011H50.239V19.0161H50.1716ZM46.2359 19.1945C44.4972 19.1945 43.392 18.4037 43.392 17.1921C43.392 15.9422 44.4568 15.2153 46.492 15.1005L50.1176 14.8837V16.006C50.1176 17.8681 48.4463 19.1945 46.2359 19.1945ZM63.2718 22.179C61.9645 25.6608 60.4684 26.8087 57.2876 26.8087C57.045 26.8087 56.2363 26.7832 56.0476 26.7322V24.3472C56.2498 24.3727 56.7485 24.3982 57.0046 24.3982C58.4467 24.3982 59.2554 23.8243 59.7541 22.3321L60.0506 21.452L54.5246 6.97639H57.9346L61.7758 18.7227H61.8432L65.6844 6.97639H69L63.2718 22.179Z" fill="black"/>
</svg>
