<svg width="26" height="26" viewBox="0 0 26 26" fill="none" xmlns="http://www.w3.org/2000/svg">
<path d="M26 13.0218C25.9895 20.2034 20.1343 26.0226 12.9425 25.9999C5.78727 25.9773 -0.00348368 20.1633 1.57241e-06 13.0044C0.0017442 5.80707 5.84652 -0.0277768 13.0244 9.94707e-05C20.2005 0.029718 26.0104 5.85934 26 13.0218ZM13.0958 10.6784C10.2153 10.6488 8.11368 9.22365 6.24732 7.2305C5.3673 9.01458 5.8134 10.438 7.27547 11.6367C7.24758 11.6768 7.22145 11.7151 7.19357 11.7552C6.73177 11.6332 6.26998 11.513 5.79076 11.3858C5.93714 12.9382 6.71783 14.0044 8.21823 14.5376C8.20255 14.5724 8.18686 14.6073 8.16943 14.6421C7.75469 14.6421 7.3382 14.6421 6.86072 14.6421C7.13257 15.3164 7.46367 15.8809 8.00737 16.2363C8.54236 16.5847 9.15402 16.813 9.74129 17.097C9.20107 17.6231 8.47265 17.9472 7.6815 18.1022C6.91126 18.2538 6.12534 18.3287 5.30804 18.4437C5.39343 18.4977 5.44746 18.5395 5.50845 18.5709C7.00885 19.3462 8.59638 19.7574 10.2902 19.7574C15.3194 19.7574 19.9409 15.8843 19.7596 10.1366C19.7544 9.98328 19.8816 9.7655 20.0123 9.67665C20.5386 9.31774 20.9446 8.87172 21.2705 8.27761C20.7216 8.42221 20.2406 8.54766 19.7596 8.67484C20.2389 8.12254 20.7041 7.62077 20.9272 6.90121C20.3765 7.14164 19.8764 7.34723 19.3885 7.57896C19.0922 7.72008 18.8883 7.66607 18.6287 7.45351C16.6003 5.7792 13.5158 6.89424 13.0993 9.45015C13.0436 9.82473 13.0958 10.2167 13.0958 10.6784Z" fill="white"/>
</svg>
